<svg id="Camada_1" data-name="Camada 1" xmlns="http://www.w3.org/2000/svg" viewBox="0 0 800 800"><defs><style>.cls-1{fill:#1e73b2;}.cls-2{fill:#fff;}</style></defs><title>Prancheta 1</title><rect class="cls-1" x="-0.77" y="-0.56" width="800" height="800" rx="75" ry="75"/><g id="g5"><g id="g4225"><path id="path7" class="cls-2" d="M406.27,573.7C348,573.7,300,526.19,300,467.46c0-58.27,47.52-106.24,106.24-106.24,58.27,0,106.24,47.52,106.24,106.24,0,58.27-47.52,106.24-106.24,106.24m0-206.65A100.41,100.41,0,1,0,506.69,467.46,100.53,100.53,0,0,0,406.27,367.05"/><path id="path9" class="cls-2" d="M406.27,573.7C348,573.7,300,526.19,300,467.46c0-58.27,47.52-106.24,106.24-106.24,58.27,0,106.24,47.52,106.24,106.24C512.51,525.74,465,573.7,406.27,573.7Zm0-206.65A100.41,100.41,0,1,0,506.69,467.46,100.53,100.53,0,0,0,406.27,367.05Z"/><path id="path11" class="cls-2" d="M406.27,641.84c-93.69,0-169.89-76.21-169.89-169.89s76.21-169.89,169.89-169.89,169.89,76.21,169.89,169.89c.45,93.69-75.76,169.89-169.89,169.89m0-334.41c-90.55,0-164.51,74-164.51,164.51s74,164.51,164.51,164.51,164.51-74,164.51-164.51S497.27,307.43,406.27,307.43"/><path id="path13" class="cls-2" d="M406.27,641.84c-93.69,0-169.89-76.21-169.89-169.89s76.21-169.89,169.89-169.89,169.89,76.21,169.89,169.89C576.62,565.63,500.41,641.84,406.27,641.84Zm0-334.41c-90.55,0-164.51,74-164.51,164.51s74,164.51,164.51,164.51,164.51-74,164.51-164.51S497.27,307.43,406.27,307.43Z"/><path id="path15" class="cls-2" d="M405.83,515c-58.27,0-106.24-47.52-106.24-106.24,0-58.27,47.52-106.24,106.24-106.24,58.27,0,106.24,47.52,106.24,106.24A106.18,106.18,0,0,1,405.83,515m0-206.2A100.41,100.41,0,1,0,506.24,409.19,100.53,100.53,0,0,0,405.83,308.78"/><path id="path17" class="cls-2" d="M405.83,515c-58.27,0-106.24-47.52-106.24-106.24,0-58.27,47.52-106.24,106.24-106.24,58.27,0,106.24,47.52,106.24,106.24A106.18,106.18,0,0,1,405.83,515Zm0-206.2A100.41,100.41,0,1,0,506.24,409.19,100.53,100.53,0,0,0,405.83,308.78Z"/><path id="path19" class="cls-2" d="M462.31,605.53C404,605.53,356.07,558,356.07,499.29c0-58.27,47.52-106.24,106.24-106.24,58.27,0,106.24,47.52,106.24,106.24-.45,58.72-48,106.24-106.24,106.24m0-206.65A100.41,100.41,0,1,0,562.72,499.29c0-55.14-45.27-100.41-100.41-100.41"/><path id="path21" class="cls-2" d="M462.31,605.53C404,605.53,356.07,558,356.07,499.29c0-58.27,47.52-106.24,106.24-106.24,58.27,0,106.24,47.52,106.24,106.24C568.1,558,520.58,605.53,462.31,605.53Zm0-206.65A100.41,100.41,0,1,0,562.72,499.29C562.72,444.15,517.44,398.88,462.31,398.88Z"/><path id="path23" class="cls-2" d="M349.34,605.53c-58.27,0-105.79-47.52-105.79-106.24,0-58.27,47.52-106.24,106.24-106.24s105.79,48,105.79,106.24A106.18,106.18,0,0,1,349.34,605.53m0-206.65A100.41,100.41,0,1,0,449.76,499.29,100.53,100.53,0,0,0,349.34,398.88"/><path id="path25" class="cls-2" d="M349.34,605.53c-58.27,0-105.79-47.52-105.79-106.24,0-58.27,47.52-106.24,106.24-106.24s105.79,48,105.79,106.24A106.18,106.18,0,0,1,349.34,605.53Zm0-206.65A100.41,100.41,0,1,0,449.76,499.29,100.53,100.53,0,0,0,349.34,398.88Z"/><path id="path27" class="cls-2" d="M594.55,320.43A65.45,65.45,0,1,1,660,255a65.52,65.52,0,0,1-65.45,65.45m0-127.76a61.86,61.86,0,1,0,61.86,61.86c.45-34.07-27.34-61.86-61.86-61.86"/><path id="path29" class="cls-2" d="M594.55,320.43A65.45,65.45,0,1,1,660,255,65.52,65.52,0,0,1,594.55,320.43Zm0-127.76a61.86,61.86,0,1,0,61.86,61.86C656.85,220.47,629.06,192.68,594.55,192.68Z"/><path id="path31" class="cls-2" d="M594.55,362.57A104.89,104.89,0,1,1,699.44,257.68c.45,57.83-47.07,104.89-104.89,104.89m0-206.65A101.76,101.76,0,1,0,696.3,257.68,102,102,0,0,0,594.55,155.92"/><path id="path33" class="cls-2" d="M594.55,362.57A104.89,104.89,0,1,1,699.44,257.68C699.89,315.5,652.37,362.57,594.55,362.57Zm0-206.65A101.76,101.76,0,1,0,696.3,257.68,102,102,0,0,0,594.55,155.92Z"/><path id="path35" class="cls-2" d="M594.55,284.12A65.45,65.45,0,1,1,660,218.68a65.52,65.52,0,0,1-65.45,65.45m0-127.31a61.86,61.86,0,1,0,61.86,61.86,62,62,0,0,0-61.86-61.86"/><path id="path37" class="cls-2" d="M594.55,284.12A65.45,65.45,0,1,1,660,218.68,65.52,65.52,0,0,1,594.55,284.12Zm0-127.31a61.86,61.86,0,1,0,61.86,61.86A62,62,0,0,0,594.55,156.82Z"/><path id="path39" class="cls-2" d="M629.06,340.16a65.45,65.45,0,1,1,65.45-65.45,65.52,65.52,0,0,1-65.45,65.45m0-127.76a61.86,61.86,0,1,0,61.86,61.86,62,62,0,0,0-61.86-61.86"/><path id="path41" class="cls-2" d="M629.06,340.16a65.45,65.45,0,1,1,65.45-65.45A65.52,65.52,0,0,1,629.06,340.16Zm0-127.76a61.86,61.86,0,1,0,61.86,61.86A62,62,0,0,0,629.06,212.4Z"/><path id="path43" class="cls-2" d="M559.58,340.16a65.45,65.45,0,0,1,0-130.89c35.86,0,65.45,29.59,65.45,65.45s-29.59,65.45-65.45,65.45m0-127.76a61.86,61.86,0,1,0,61.86,61.86,62,62,0,0,0-61.86-61.86"/><path id="path45" class="cls-2" d="M559.58,340.16a65.45,65.45,0,0,1,0-130.89c35.86,0,65.45,29.59,65.45,65.45S595.44,340.16,559.58,340.16Zm0-127.76a61.86,61.86,0,1,0,61.86,61.86A62,62,0,0,0,559.58,212.4Z"/><path id="path47" class="cls-2" d="M165.56,529.77a40.34,40.34,0,1,1,40.34-40.34,40.18,40.18,0,0,1-40.34,40.34m0-78.89a38.1,38.1,0,1,0,38.1,38.1c.45-21.07-17-38.1-38.1-38.1"/><path id="path49" class="cls-2" d="M165.56,529.77a40.34,40.34,0,1,1,40.34-40.34A40.18,40.18,0,0,1,165.56,529.77Zm0-78.89a38.1,38.1,0,1,0,38.1,38.1C204.11,467.91,186.62,450.88,165.56,450.88Z"/><path id="path51" class="cls-2" d="M165.56,555.77a65,65,0,1,1,65-65,65,65,0,0,1-65,65m0-127.76a62.76,62.76,0,1,0,62.76,62.76A62.94,62.94,0,0,0,165.56,428"/><path id="path53" class="cls-2" d="M165.56,555.77a65,65,0,1,1,65-65A65,65,0,0,1,165.56,555.77Zm0-127.76a62.76,62.76,0,1,0,62.76,62.76A62.94,62.94,0,0,0,165.56,428Z"/><path id="path55" class="cls-2" d="M165.56,507.36A40.34,40.34,0,1,1,205.9,467a40.18,40.18,0,0,1-40.34,40.34m0-78.89a38.1,38.1,0,1,0,38.1,38.1,38.07,38.07,0,0,0-38.1-38.1"/><path id="path57" class="cls-2" d="M165.56,507.36A40.34,40.34,0,1,1,205.9,467,40.18,40.18,0,0,1,165.56,507.36Zm0-78.89a38.1,38.1,0,1,0,38.1,38.1A38.07,38.07,0,0,0,165.56,428.46Z"/><path id="path59" class="cls-2" d="M186.62,541.88A40.34,40.34,0,1,1,227,501.53c.45,22-17.93,40.34-40.34,40.34m0-78.89a38.1,38.1,0,1,0,38.1,38.1c.45-20.62-16.59-38.1-38.1-38.1"/><path id="path61" class="cls-2" d="M186.62,541.88A40.34,40.34,0,1,1,227,501.53C227.42,523.5,209,541.88,186.62,541.88Zm0-78.89a38.1,38.1,0,1,0,38.1,38.1C225.17,480.46,208.14,463,186.62,463Z"/><path id="path63" class="cls-2" d="M144,541.88a40.34,40.34,0,1,1,40.34-40.34c0,22-18.38,40.34-40.34,40.34M144,463a38.1,38.1,0,1,0,38.1,38.1A38.07,38.07,0,0,0,144,463"/><path id="path65" class="cls-2" d="M144,541.88a40.34,40.34,0,1,1,40.34-40.34C184.38,523.5,166,541.88,144,541.88ZM144,463a38.1,38.1,0,1,0,38.1,38.1A38.07,38.07,0,0,0,144,463Z"/><path id="path67" class="cls-2" d="M576.62,631.08a25.1,25.1,0,1,1,25.1-25.1c-.45,13.9-11.65,25.1-25.1,25.1m0-48.41a23.76,23.76,0,1,0,23.76,23.76c-.45-13.45-10.76-23.76-23.76-23.76"/><path id="path69" class="cls-2" d="M576.62,631.08a25.1,25.1,0,1,1,25.1-25.1C601.27,619.87,590.06,631.08,576.62,631.08Zm0-48.41a23.76,23.76,0,1,0,23.76,23.76C599.93,593,589.62,582.67,576.62,582.67Z"/><path id="path71" class="cls-2" d="M576.62,647.22a39.9,39.9,0,1,1,39.9-39.9,40,40,0,0,1-39.9,39.9m0-78.89a38.55,38.55,0,1,0,38.55,38.55,38.55,38.55,0,0,0-38.55-38.55"/><path id="path73" class="cls-2" d="M576.62,647.22a39.9,39.9,0,1,1,39.9-39.9A40,40,0,0,1,576.62,647.22Zm0-78.89a38.55,38.55,0,1,0,38.55,38.55A38.55,38.55,0,0,0,576.62,568.32Z"/><path id="path75" class="cls-2" d="M576.62,617.18a25.1,25.1,0,1,1,25.1-25.1c-.45,13.9-11.65,25.1-25.1,25.1m0-48.41a23.76,23.76,0,1,0,23.76,23.76,23.92,23.92,0,0,0-23.76-23.76"/><path id="path77" class="cls-2" d="M576.62,617.18a25.1,25.1,0,1,1,25.1-25.1C601.27,606,590.06,617.18,576.62,617.18Zm0-48.41a23.76,23.76,0,1,0,23.76,23.76A23.92,23.92,0,0,0,576.62,568.77Z"/><path id="path79" class="cls-2" d="M589.62,638.7a25.1,25.1,0,1,1,25.1-25.1,25.06,25.06,0,0,1-25.1,25.1m0-48.86a23.76,23.76,0,1,0,23.76,23.76,23.92,23.92,0,0,0-23.76-23.76"/><path id="path81" class="cls-2" d="M589.62,638.7a25.1,25.1,0,1,1,25.1-25.1A25.06,25.06,0,0,1,589.62,638.7Zm0-48.86a23.76,23.76,0,1,0,23.76,23.76A23.92,23.92,0,0,0,589.62,589.84Z"/><path id="path83" class="cls-2" d="M563.17,638.7a25.1,25.1,0,1,1,25.1-25.1c-.45,13.9-11.21,25.1-25.1,25.1m0-48.86a23.76,23.76,0,1,0,23.76,23.76,23.92,23.92,0,0,0-23.76-23.76"/><path id="path85" class="cls-2" d="M563.17,638.7a25.1,25.1,0,1,1,25.1-25.1C587.82,627.5,577.06,638.7,563.17,638.7Zm0-48.86a23.76,23.76,0,1,0,23.76,23.76A23.92,23.92,0,0,0,563.17,589.84Z"/></g></g></svg>