<?xml version="1.0" encoding="UTF-8" standalone="no"?>
<!-- Generator: Adobe Illustrator 21.0.0, SVG Export Plug-In . SVG Version: 6.00 Build 0)  -->

<svg
   xmlns:dc="http://purl.org/dc/elements/1.1/"
   xmlns:cc="http://creativecommons.org/ns#"
   xmlns:rdf="http://www.w3.org/1999/02/22-rdf-syntax-ns#"
   xmlns:svg="http://www.w3.org/2000/svg"
   xmlns="http://www.w3.org/2000/svg"
   xmlns:sodipodi="http://sodipodi.sourceforge.net/DTD/sodipodi-0.dtd"
   xmlns:inkscape="http://www.inkscape.org/namespaces/inkscape"
   version="1.1"
   id="Camada_1"
   x="0px"
   y="0px"
   viewBox="0 0 410.00001 110"
   xml:space="preserve"
   inkscape:version="0.91 r13725"
   sodipodi:docname="logo-white.svg"
   width="410"
   height="110"><metadata
     id="metadata93"><rdf:RDF><cc:Work
         rdf:about=""><dc:format>image/svg+xml</dc:format><dc:type
           rdf:resource="http://purl.org/dc/dcmitype/StillImage" /><dc:title></dc:title></cc:Work></rdf:RDF></metadata><defs
     id="defs91" /><sodipodi:namedview
     pagecolor="#ffffff"
     bordercolor="#666666"
     borderopacity="1"
     objecttolerance="10"
     gridtolerance="10"
     guidetolerance="10"
     inkscape:pageopacity="0"
     inkscape:pageshadow="2"
     inkscape:window-width="1366"
     inkscape:window-height="712"
     id="namedview89"
     showgrid="false"
     inkscape:zoom="1.4283099"
     inkscape:cx="259.8069"
     inkscape:cy="19.658154"
     inkscape:window-x="0"
     inkscape:window-y="30"
     inkscape:window-maximized="1"
     inkscape:current-layer="Camada_1" /><style
     type="text/css"
     id="style3">
	.st0{fill:#000001;stroke:#FFFFFF;stroke-miterlimit:10;}
	.st1{fill:none;stroke:#FFFFFF;stroke-width:2.973;stroke-miterlimit:10;}
	.st2{fill:none;stroke:#FFFFFF;stroke-width:1.836;stroke-miterlimit:10;}
	.st3{fill:none;stroke:#FFFFFF;stroke-width:1.134;stroke-miterlimit:10;}
	.st4{fill:none;stroke:#FFFFFF;stroke-width:0.7;stroke-miterlimit:10;}
	.st5{fill:#FFFFFF;}
</style><g
     id="g4333"
     transform="translate(-1.533,2.359)"><path
       style="fill:#000001;stroke:#ffffff;stroke-miterlimit:10"
       inkscape:connector-curvature="0"
       id="path5"
       d="m 70.3,91.6 c -13,0 -23.7,-10.6 -23.7,-23.7 0,-13 10.6,-23.7 23.7,-23.7 13,0 23.7,10.6 23.7,23.7 0,13 -10.6,23.7 -23.7,23.7 m 0,-46.1 c -12.4,0 -22.4,10.1 -22.4,22.4 0,12.4 10.1,22.4 22.4,22.4 12.4,0 22.4,-10.1 22.4,-22.4 0,-12.4 -10,-22.4 -22.4,-22.4"
       class="st0" /><path
       style="fill:none;stroke:#ffffff;stroke-width:2.97300005;stroke-miterlimit:10"
       inkscape:connector-curvature="0"
       id="path7"
       d="m 70.3,91.6 c -13,0 -23.7,-10.6 -23.7,-23.7 0,-13 10.6,-23.7 23.7,-23.7 13,0 23.7,10.6 23.7,23.7 0,13 -10.6,23.7 -23.7,23.7 z m 0,-46.1 c -12.4,0 -22.4,10.1 -22.4,22.4 0,12.4 10.1,22.4 22.4,22.4 12.4,0 22.4,-10.1 22.4,-22.4 0,-12.4 -10,-22.4 -22.4,-22.4 z"
       class="st1" /><path
       style="fill:#000001;stroke:#ffffff;stroke-miterlimit:10"
       inkscape:connector-curvature="0"
       id="path9"
       d="M 70.3,106.8 C 49.4,106.8 32.4,89.8 32.4,68.9 32.4,48 49.4,31 70.3,31 c 20.9,0 37.9,17 37.9,37.9 0.1,20.9 -16.9,37.9 -37.9,37.9 m 0,-74.6 c -20.2,0 -36.7,16.5 -36.7,36.7 0,20.2 16.5,36.7 36.7,36.7 C 90.5,105.6 107,89.1 107,68.9 107,48.7 90.6,32.2 70.3,32.2"
       class="st0" /><path
       style="fill:none;stroke:#ffffff;stroke-width:2.97300005;stroke-miterlimit:10"
       inkscape:connector-curvature="0"
       id="path11"
       d="M 70.3,106.8 C 49.4,106.8 32.4,89.8 32.4,68.9 32.4,48 49.4,31 70.3,31 c 20.9,0 37.9,17 37.9,37.9 0.1,20.9 -16.9,37.9 -37.9,37.9 z m 0,-74.6 c -20.2,0 -36.7,16.5 -36.7,36.7 0,20.2 16.5,36.7 36.7,36.7 C 90.5,105.6 107,89.1 107,68.9 107,48.7 90.6,32.2 70.3,32.2 Z"
       class="st1" /><path
       style="fill:#000001;stroke:#ffffff;stroke-miterlimit:10"
       inkscape:connector-curvature="0"
       id="path13"
       d="m 70.2,78.5 c -13,0 -23.7,-10.6 -23.7,-23.7 0,-13 10.6,-23.7 23.7,-23.7 13,0 23.7,10.6 23.7,23.7 0,13.1 -10.6,23.7 -23.7,23.7 m 0,-46 c -12.4,0 -22.4,10.1 -22.4,22.4 0,12.4 10.1,22.4 22.4,22.4 12.4,0 22.4,-10.1 22.4,-22.4 0,-12.4 -10,-22.4 -22.4,-22.4"
       class="st0" /><path
       style="fill:none;stroke:#ffffff;stroke-width:2.97300005;stroke-miterlimit:10"
       inkscape:connector-curvature="0"
       id="path15"
       d="m 70.2,78.5 c -13,0 -23.7,-10.6 -23.7,-23.7 0,-13 10.6,-23.7 23.7,-23.7 13,0 23.7,10.6 23.7,23.7 0,13.1 -10.6,23.7 -23.7,23.7 z m 0,-46 c -12.4,0 -22.4,10.1 -22.4,22.4 0,12.4 10.1,22.4 22.4,22.4 12.4,0 22.4,-10.1 22.4,-22.4 0,-12.4 -10,-22.4 -22.4,-22.4 z"
       class="st1" /><path
       style="fill:#000001;stroke:#ffffff;stroke-miterlimit:10"
       inkscape:connector-curvature="0"
       id="path17"
       d="m 82.8,98.7 c -13,0 -23.7,-10.6 -23.7,-23.7 0,-13 10.6,-23.7 23.7,-23.7 13,0 23.7,10.6 23.7,23.7 -0.1,13.1 -10.7,23.7 -23.7,23.7 m 0,-46.1 c -12.4,0 -22.4,10.1 -22.4,22.4 0,12.4 10.1,22.4 22.4,22.4 12.4,0 22.4,-10.1 22.4,-22.4 0,-12.3 -10.1,-22.4 -22.4,-22.4"
       class="st0" /><path
       style="fill:none;stroke:#ffffff;stroke-width:2.97300005;stroke-miterlimit:10"
       inkscape:connector-curvature="0"
       id="path19"
       d="m 82.8,98.7 c -13,0 -23.7,-10.6 -23.7,-23.7 0,-13 10.6,-23.7 23.7,-23.7 13,0 23.7,10.6 23.7,23.7 -0.1,13.1 -10.7,23.7 -23.7,23.7 z m 0,-46.1 c -12.4,0 -22.4,10.1 -22.4,22.4 0,12.4 10.1,22.4 22.4,22.4 12.4,0 22.4,-10.1 22.4,-22.4 0,-12.3 -10.1,-22.4 -22.4,-22.4 z"
       class="st1" /><path
       style="fill:#000001;stroke:#ffffff;stroke-miterlimit:10"
       inkscape:connector-curvature="0"
       id="path21"
       d="M 57.6,98.7 C 44.6,98.7 34,88.1 34,75 34,62 44.6,51.3 57.7,51.3 70.8,51.3 81.3,62 81.3,75 81.3,88.1 70.7,98.7 57.6,98.7 m 0,-46.1 C 45.2,52.6 35.2,62.7 35.2,75 35.2,87.4 45.3,97.4 57.6,97.4 69.9,97.4 80,87.4 80,75 80,62.7 70,52.6 57.6,52.6"
       class="st0" /><path
       style="fill:none;stroke:#ffffff;stroke-width:2.97300005;stroke-miterlimit:10"
       inkscape:connector-curvature="0"
       id="path23"
       d="M 57.6,98.7 C 44.6,98.7 34,88.1 34,75 34,62 44.6,51.3 57.7,51.3 70.8,51.3 81.3,62 81.3,75 81.3,88.1 70.7,98.7 57.6,98.7 Z m 0,-46.1 C 45.2,52.6 35.2,62.7 35.2,75 35.2,87.4 45.3,97.4 57.6,97.4 69.9,97.4 80,87.4 80,75 80,62.7 70,52.6 57.6,52.6 Z"
       class="st1" /><path
       style="fill:#000001;stroke:#ffffff;stroke-miterlimit:10"
       inkscape:connector-curvature="0"
       id="path25"
       d="m 112.3,35.1 c -8.1,0 -14.6,-6.6 -14.6,-14.6 0,-8.1 6.6,-14.6 14.6,-14.6 8.1,0 14.6,6.6 14.6,14.6 0,8 -6.5,14.6 -14.6,14.6 m 0,-28.5 c -7.6,0 -13.8,6.2 -13.8,13.8 0,7.6 6.2,13.8 13.8,13.8 7.6,0 13.8,-6.2 13.8,-13.8 C 126.2,12.8 120,6.6 112.3,6.6"
       class="st0" /><path
       style="fill:none;stroke:#ffffff;stroke-width:1.83599997;stroke-miterlimit:10"
       inkscape:connector-curvature="0"
       id="path27"
       d="m 112.3,35.1 c -8.1,0 -14.6,-6.6 -14.6,-14.6 0,-8.1 6.6,-14.6 14.6,-14.6 8.1,0 14.6,6.6 14.6,14.6 0,8 -6.5,14.6 -14.6,14.6 z m 0,-28.5 c -7.6,0 -13.8,6.2 -13.8,13.8 0,7.6 6.2,13.8 13.8,13.8 7.6,0 13.8,-6.2 13.8,-13.8 C 126.2,12.8 120,6.6 112.3,6.6 Z"
       class="st2" /><path
       style="fill:#000001;stroke:#ffffff;stroke-miterlimit:10"
       inkscape:connector-curvature="0"
       id="path29"
       d="M 112.3,44.5 C 99.4,44.5 88.9,34 88.9,21.1 c 0,-12.9 10.5,-23.4 23.4,-23.4 12.9,0 23.4,10.5 23.4,23.4 0.1,12.9 -10.5,23.4 -23.4,23.4 m 0,-46.1 c -12.5,0 -22.7,10.2 -22.7,22.7 0,12.5 10.2,22.7 22.7,22.7 12.5,0 22.7,-10.2 22.7,-22.7 0,-12.5 -10.2,-22.7 -22.7,-22.7"
       class="st0" /><path
       style="fill:none;stroke:#ffffff;stroke-width:1.83599997;stroke-miterlimit:10"
       inkscape:connector-curvature="0"
       id="path31"
       d="M 112.3,44.5 C 99.4,44.5 88.9,34 88.9,21.1 c 0,-12.9 10.5,-23.4 23.4,-23.4 12.9,0 23.4,10.5 23.4,23.4 0.1,12.9 -10.5,23.4 -23.4,23.4 z m 0,-46.1 c -12.5,0 -22.7,10.2 -22.7,22.7 0,12.5 10.2,22.7 22.7,22.7 12.5,0 22.7,-10.2 22.7,-22.7 0,-12.5 -10.2,-22.7 -22.7,-22.7 z"
       class="st2" /><path
       style="fill:#000001;stroke:#ffffff;stroke-miterlimit:10"
       inkscape:connector-curvature="0"
       id="path33"
       d="m 112.3,27 c -8.1,0 -14.6,-6.6 -14.6,-14.6 0,-8.1 6.6,-14.6 14.6,-14.6 8.1,0 14.6,6.6 14.6,14.6 0,8.1 -6.6,14.6 -14.6,14.6 m 0,-28.4 c -7.6,0 -13.8,6.2 -13.8,13.8 0,7.6 6.2,13.8 13.8,13.8 7.6,0 13.8,-6.2 13.8,-13.8 0,-7.6 -6.2,-13.8 -13.8,-13.8"
       class="st0" /><path
       style="fill:none;stroke:#ffffff;stroke-width:1.83599997;stroke-miterlimit:10"
       inkscape:connector-curvature="0"
       id="path35"
       d="m 112.3,27 c -8.1,0 -14.6,-6.6 -14.6,-14.6 0,-8.1 6.6,-14.6 14.6,-14.6 8.1,0 14.6,6.6 14.6,14.6 0,8.1 -6.6,14.6 -14.6,14.6 z m 0,-28.4 c -7.6,0 -13.8,6.2 -13.8,13.8 0,7.6 6.2,13.8 13.8,13.8 7.6,0 13.8,-6.2 13.8,-13.8 0,-7.6 -6.2,-13.8 -13.8,-13.8 z"
       class="st2" /><path
       style="fill:#000001;stroke:#ffffff;stroke-miterlimit:10"
       inkscape:connector-curvature="0"
       id="path37"
       d="m 120,39.5 c -8.1,0 -14.6,-6.6 -14.6,-14.6 0,-8.1 6.6,-14.6 14.6,-14.6 8.1,0 14.6,6.6 14.6,14.6 0,8 -6.5,14.6 -14.6,14.6 M 120,11 c -7.6,0 -13.8,6.2 -13.8,13.8 0,7.6 6.2,13.8 13.8,13.8 7.6,0 13.8,-6.2 13.8,-13.8 C 133.8,17.2 127.6,11 120,11"
       class="st0" /><path
       style="fill:none;stroke:#ffffff;stroke-width:1.83599997;stroke-miterlimit:10"
       inkscape:connector-curvature="0"
       id="path39"
       d="m 120,39.5 c -8.1,0 -14.6,-6.6 -14.6,-14.6 0,-8.1 6.6,-14.6 14.6,-14.6 8.1,0 14.6,6.6 14.6,14.6 0,8 -6.5,14.6 -14.6,14.6 z M 120,11 c -7.6,0 -13.8,6.2 -13.8,13.8 0,7.6 6.2,13.8 13.8,13.8 7.6,0 13.8,-6.2 13.8,-13.8 C 133.8,17.2 127.6,11 120,11 Z"
       class="st2" /><path
       style="fill:#000001;stroke:#ffffff;stroke-miterlimit:10"
       inkscape:connector-curvature="0"
       id="path41"
       d="m 104.5,39.5 c -8.1,0 -14.6,-6.6 -14.6,-14.6 0,-8.1 6.6,-14.6 14.6,-14.6 8,0 14.6,6.6 14.6,14.6 0,8 -6.6,14.6 -14.6,14.6 m 0,-28.5 c -7.6,0 -13.8,6.2 -13.8,13.8 0,7.6 6.2,13.8 13.8,13.8 7.6,0 13.8,-6.2 13.8,-13.8 0,-7.6 -6.2,-13.8 -13.8,-13.8"
       class="st0" /><path
       style="fill:none;stroke:#ffffff;stroke-width:1.83599997;stroke-miterlimit:10"
       inkscape:connector-curvature="0"
       id="path43"
       d="m 104.5,39.5 c -8.1,0 -14.6,-6.6 -14.6,-14.6 0,-8.1 6.6,-14.6 14.6,-14.6 8,0 14.6,6.6 14.6,14.6 0,8 -6.6,14.6 -14.6,14.6 z m 0,-28.5 c -7.6,0 -13.8,6.2 -13.8,13.8 0,7.6 6.2,13.8 13.8,13.8 7.6,0 13.8,-6.2 13.8,-13.8 0,-7.6 -6.2,-13.8 -13.8,-13.8 z"
       class="st2" /><path
       style="fill:#000001;stroke:#ffffff;stroke-miterlimit:10"
       inkscape:connector-curvature="0"
       id="path45"
       d="m 16.6,81.8 c -5,0 -9,-4 -9,-9 0,-5 4,-9 9,-9 5,0 9,4 9,9 0,4.9 -4,9 -9,9 m 0,-17.6 c -4.7,0 -8.5,3.8 -8.5,8.5 0,4.7 3.8,8.5 8.5,8.5 4.7,0 8.5,-3.8 8.5,-8.5 0.1,-4.7 -3.8,-8.5 -8.5,-8.5"
       class="st0" /><path
       style="fill:none;stroke:#ffffff;stroke-width:1.13399994;stroke-miterlimit:10"
       inkscape:connector-curvature="0"
       id="path47"
       d="m 16.6,81.8 c -5,0 -9,-4 -9,-9 0,-5 4,-9 9,-9 5,0 9,4 9,9 0,4.9 -4,9 -9,9 z m 0,-17.6 c -4.7,0 -8.5,3.8 -8.5,8.5 0,4.7 3.8,8.5 8.5,8.5 4.7,0 8.5,-3.8 8.5,-8.5 0.1,-4.7 -3.8,-8.5 -8.5,-8.5 z"
       class="st3" /><path
       style="fill:#000001;stroke:#ffffff;stroke-miterlimit:10"
       inkscape:connector-curvature="0"
       id="path49"
       d="m 16.6,87.6 c -8,0 -14.5,-6.5 -14.5,-14.5 0,-8 6.5,-14.5 14.5,-14.5 8,0 14.5,6.5 14.5,14.5 0,8 -6.5,14.5 -14.5,14.5 m 0,-28.5 c -7.7,0 -14,6.3 -14,14 0,7.7 6.3,14 14,14 7.7,0 14,-6.3 14,-14 0,-7.7 -6.3,-14 -14,-14"
       class="st0" /><path
       style="fill:none;stroke:#ffffff;stroke-width:1.13399994;stroke-miterlimit:10"
       inkscape:connector-curvature="0"
       id="path51"
       d="m 16.6,87.6 c -8,0 -14.5,-6.5 -14.5,-14.5 0,-8 6.5,-14.5 14.5,-14.5 8,0 14.5,6.5 14.5,14.5 0,8 -6.5,14.5 -14.5,14.5 z m 0,-28.5 c -7.7,0 -14,6.3 -14,14 0,7.7 6.3,14 14,14 7.7,0 14,-6.3 14,-14 0,-7.7 -6.3,-14 -14,-14 z"
       class="st3" /><path
       style="fill:#000001;stroke:#ffffff;stroke-miterlimit:10"
       inkscape:connector-curvature="0"
       id="path53"
       d="m 16.6,76.8 c -5,0 -9,-4 -9,-9 0,-5 4,-9 9,-9 5,0 9,4 9,9 0,5 -4.1,9 -9,9 m 0,-17.6 c -4.7,0 -8.5,3.8 -8.5,8.5 0,4.7 3.8,8.5 8.5,8.5 4.7,0 8.5,-3.8 8.5,-8.5 0,-4.6 -3.8,-8.5 -8.5,-8.5"
       class="st0" /><path
       style="fill:none;stroke:#ffffff;stroke-width:1.13399994;stroke-miterlimit:10"
       inkscape:connector-curvature="0"
       id="path55"
       d="m 16.6,76.8 c -5,0 -9,-4 -9,-9 0,-5 4,-9 9,-9 5,0 9,4 9,9 0,5 -4.1,9 -9,9 z m 0,-17.6 c -4.7,0 -8.5,3.8 -8.5,8.5 0,4.7 3.8,8.5 8.5,8.5 4.7,0 8.5,-3.8 8.5,-8.5 0,-4.6 -3.8,-8.5 -8.5,-8.5 z"
       class="st3" /><path
       style="fill:#000001;stroke:#ffffff;stroke-miterlimit:10"
       inkscape:connector-curvature="0"
       id="path57"
       d="m 21.3,84.5 c -5,0 -9,-4 -9,-9 0,-5 4,-9 9,-9 5,0 9,4 9,9 0.1,4.9 -4,9 -9,9 m 0,-17.6 c -4.7,0 -8.5,3.8 -8.5,8.5 0,4.7 3.8,8.5 8.5,8.5 4.7,0 8.5,-3.8 8.5,-8.5 0.1,-4.6 -3.7,-8.5 -8.5,-8.5"
       class="st0" /><path
       style="fill:none;stroke:#ffffff;stroke-width:1.13399994;stroke-miterlimit:10"
       inkscape:connector-curvature="0"
       id="path59"
       d="m 21.3,84.5 c -5,0 -9,-4 -9,-9 0,-5 4,-9 9,-9 5,0 9,4 9,9 0.1,4.9 -4,9 -9,9 z m 0,-17.6 c -4.7,0 -8.5,3.8 -8.5,8.5 0,4.7 3.8,8.5 8.5,8.5 4.7,0 8.5,-3.8 8.5,-8.5 0.1,-4.6 -3.7,-8.5 -8.5,-8.5 z"
       class="st3" /><path
       style="fill:#000001;stroke:#ffffff;stroke-miterlimit:10"
       inkscape:connector-curvature="0"
       id="path61"
       d="m 11.8,84.5 c -5,0 -9,-4 -9,-9 0,-5 4,-9 9,-9 5,0 9,4 9,9 0,4.9 -4.1,9 -9,9 m 0,-17.6 c -4.7,0 -8.5,3.8 -8.5,8.5 0,4.7 3.8,8.5 8.5,8.5 4.7,0 8.5,-3.8 8.5,-8.5 0,-4.6 -3.8,-8.5 -8.5,-8.5"
       class="st0" /><path
       style="fill:none;stroke:#ffffff;stroke-width:1.13399994;stroke-miterlimit:10"
       inkscape:connector-curvature="0"
       id="path63"
       d="m 11.8,84.5 c -5,0 -9,-4 -9,-9 0,-5 4,-9 9,-9 5,0 9,4 9,9 0,4.9 -4.1,9 -9,9 z m 0,-17.6 c -4.7,0 -8.5,3.8 -8.5,8.5 0,4.7 3.8,8.5 8.5,8.5 4.7,0 8.5,-3.8 8.5,-8.5 0,-4.6 -3.8,-8.5 -8.5,-8.5 z"
       class="st3" /><path
       style="fill:#000001;stroke:#ffffff;stroke-miterlimit:10"
       inkscape:connector-curvature="0"
       id="path65"
       d="m 108.3,104.4 c -3.1,0 -5.6,-2.5 -5.6,-5.6 0,-3.1 2.5,-5.6 5.6,-5.6 3.1,0 5.6,2.5 5.6,5.6 -0.1,3.1 -2.6,5.6 -5.6,5.6 m 0,-10.8 c -2.9,0 -5.3,2.4 -5.3,5.3 0,2.9 2.4,5.3 5.3,5.3 2.9,0 5.3,-2.4 5.3,-5.3 -0.1,-3 -2.4,-5.3 -5.3,-5.3"
       class="st0" /><path
       style="fill:none;stroke:#ffffff;stroke-width:0.69999999;stroke-miterlimit:10"
       inkscape:connector-curvature="0"
       id="path67"
       d="m 108.3,104.4 c -3.1,0 -5.6,-2.5 -5.6,-5.6 0,-3.1 2.5,-5.6 5.6,-5.6 3.1,0 5.6,2.5 5.6,5.6 -0.1,3.1 -2.6,5.6 -5.6,5.6 z m 0,-10.8 c -2.9,0 -5.3,2.4 -5.3,5.3 0,2.9 2.4,5.3 5.3,5.3 2.9,0 5.3,-2.4 5.3,-5.3 -0.1,-3 -2.4,-5.3 -5.3,-5.3 z"
       class="st4" /><path
       style="fill:#000001;stroke:#ffffff;stroke-miterlimit:10"
       inkscape:connector-curvature="0"
       id="path69"
       d="m 108.3,108 c -4.9,0 -8.9,-4 -8.9,-8.9 0,-4.9 4,-8.9 8.9,-8.9 4.9,0 8.9,4 8.9,8.9 0,4.9 -4,8.9 -8.9,8.9 m 0,-17.6 c -4.8,0 -8.6,3.9 -8.6,8.6 0,4.8 3.9,8.6 8.6,8.6 4.8,0 8.6,-3.9 8.6,-8.6 0,-4.7 -3.9,-8.6 -8.6,-8.6"
       class="st0" /><path
       style="fill:none;stroke:#ffffff;stroke-width:0.69999999;stroke-miterlimit:10"
       inkscape:connector-curvature="0"
       id="path71"
       d="m 108.3,108 c -4.9,0 -8.9,-4 -8.9,-8.9 0,-4.9 4,-8.9 8.9,-8.9 4.9,0 8.9,4 8.9,8.9 0,4.9 -4,8.9 -8.9,8.9 z m 0,-17.6 c -4.8,0 -8.6,3.9 -8.6,8.6 0,4.8 3.9,8.6 8.6,8.6 4.8,0 8.6,-3.9 8.6,-8.6 0,-4.7 -3.9,-8.6 -8.6,-8.6 z"
       class="st4" /><path
       style="fill:#000001;stroke:#ffffff;stroke-miterlimit:10"
       inkscape:connector-curvature="0"
       id="path73"
       d="m 108.3,101.3 c -3.1,0 -5.6,-2.5 -5.6,-5.6 0,-3.1 2.5,-5.6 5.6,-5.6 3.1,0 5.6,2.5 5.6,5.6 -0.1,3.1 -2.6,5.6 -5.6,5.6 m 0,-10.8 c -2.9,0 -5.3,2.4 -5.3,5.3 0,2.9 2.4,5.3 5.3,5.3 2.9,0 5.3,-2.4 5.3,-5.3 0,-2.9 -2.4,-5.3 -5.3,-5.3"
       class="st0" /><path
       style="fill:none;stroke:#ffffff;stroke-width:0.69999999;stroke-miterlimit:10"
       inkscape:connector-curvature="0"
       id="path75"
       d="m 108.3,101.3 c -3.1,0 -5.6,-2.5 -5.6,-5.6 0,-3.1 2.5,-5.6 5.6,-5.6 3.1,0 5.6,2.5 5.6,5.6 -0.1,3.1 -2.6,5.6 -5.6,5.6 z m 0,-10.8 c -2.9,0 -5.3,2.4 -5.3,5.3 0,2.9 2.4,5.3 5.3,5.3 2.9,0 5.3,-2.4 5.3,-5.3 0,-2.9 -2.4,-5.3 -5.3,-5.3 z"
       class="st4" /><path
       style="fill:#000001;stroke:#ffffff;stroke-miterlimit:10"
       inkscape:connector-curvature="0"
       id="path77"
       d="m 111.2,106.1 c -3.1,0 -5.6,-2.5 -5.6,-5.6 0,-3.1 2.5,-5.6 5.6,-5.6 3.1,0 5.6,2.5 5.6,5.6 0,3.1 -2.5,5.6 -5.6,5.6 m 0,-10.9 c -2.9,0 -5.3,2.4 -5.3,5.3 0,2.9 2.4,5.3 5.3,5.3 2.9,0 5.3,-2.4 5.3,-5.3 0,-2.9 -2.4,-5.3 -5.3,-5.3"
       class="st0" /><path
       style="fill:none;stroke:#ffffff;stroke-width:0.69999999;stroke-miterlimit:10"
       inkscape:connector-curvature="0"
       id="path79"
       d="m 111.2,106.1 c -3.1,0 -5.6,-2.5 -5.6,-5.6 0,-3.1 2.5,-5.6 5.6,-5.6 3.1,0 5.6,2.5 5.6,5.6 0,3.1 -2.5,5.6 -5.6,5.6 z m 0,-10.9 c -2.9,0 -5.3,2.4 -5.3,5.3 0,2.9 2.4,5.3 5.3,5.3 2.9,0 5.3,-2.4 5.3,-5.3 0,-2.9 -2.4,-5.3 -5.3,-5.3 z"
       class="st4" /><path
       style="fill:#000001;stroke:#ffffff;stroke-miterlimit:10"
       inkscape:connector-curvature="0"
       id="path81"
       d="m 105.3,106.1 c -3.1,0 -5.6,-2.5 -5.6,-5.6 0,-3.1 2.5,-5.6 5.6,-5.6 3.1,0 5.6,2.5 5.6,5.6 -0.1,3.1 -2.5,5.6 -5.6,5.6 m 0,-10.9 c -2.9,0 -5.3,2.4 -5.3,5.3 0,2.9 2.4,5.3 5.3,5.3 2.9,0 5.3,-2.4 5.3,-5.3 0,-2.9 -2.4,-5.3 -5.3,-5.3"
       class="st0" /><path
       style="fill:none;stroke:#ffffff;stroke-width:0.69999999;stroke-miterlimit:10"
       inkscape:connector-curvature="0"
       id="path83"
       d="m 105.3,106.1 c -3.1,0 -5.6,-2.5 -5.6,-5.6 0,-3.1 2.5,-5.6 5.6,-5.6 3.1,0 5.6,2.5 5.6,5.6 -0.1,3.1 -2.5,5.6 -5.6,5.6 z m 0,-10.9 c -2.9,0 -5.3,2.4 -5.3,5.3 0,2.9 2.4,5.3 5.3,5.3 2.9,0 5.3,-2.4 5.3,-5.3 0,-2.9 -2.4,-5.3 -5.3,-5.3 z"
       class="st4" /><g
       transform="translate(0,-4)"
       id="text4223"
       style="font-style:normal;font-weight:normal;font-size:40px;line-height:125%;font-family:sans-serif;letter-spacing:0px;word-spacing:0px;fill:#ffffff;fill-opacity:1;stroke:none;stroke-width:1px;stroke-linecap:butt;stroke-linejoin:miter;stroke-opacity:1"><path
         inkscape:connector-curvature="0"
         id="path4230"
         style="font-style:normal;font-variant:normal;font-weight:normal;font-stretch:normal;font-family:Laksaman;-inkscape-font-specification:Laksaman;fill:#ffffff"
         d="m 174.64948,15.54 -10.52,0 0,26.64 -2.4,0 0,-26.64 -10.52,0 0,-2 23.44,0 0,2 z" /><path
         inkscape:connector-curvature="0"
         id="path4232"
         style="font-style:normal;font-variant:normal;font-weight:normal;font-stretch:normal;font-family:Laksaman;-inkscape-font-specification:Laksaman;fill:#ffffff"
         d="m 176.5851,32.14 q 0.12,3.88 2.32,6.24 2.24,2.36 5.96,2.36 3.48,0 7.16,-1.44 l 0.2,1.96 q -3.56,1.48 -7.6,1.48 -4.6,0 -7.52,-2.84 -2.92,-2.88 -2.92,-7.4 0,-4.84 2.8,-8 2.84,-3.2 7.4,-3.2 8.6,0 8.8,10.84 l -16.6,0 z m 14.2,-2 q -0.08,-3.12 -1.92,-4.96 -1.8,-1.88 -4.76,-1.88 -2.96,0 -4.96,1.96 -2,1.92 -2.44,4.88 l 14.08,0 z" /><path
         inkscape:connector-curvature="0"
         id="path4234"
         style="font-style:normal;font-variant:normal;font-weight:normal;font-stretch:normal;font-family:Laksaman;-inkscape-font-specification:Laksaman;fill:#ffffff"
         d="m 217.3251,32.02 q 0,4.56 -2.92,7.64 -2.88,3.08 -7.4,3.08 -4.56,0 -7.44,-3.04 -2.88,-3.08 -2.88,-7.68 0,-4.56 2.92,-7.64 2.92,-3.08 7.4,-3.08 4.52,0 7.4,3.08 2.92,3.08 2.92,7.64 z m -10.32,8.72 q 3.48,0 5.68,-2.52 2.24,-2.52 2.24,-6.2 0,-3.68 -2.2,-6.2 -2.2,-2.52 -5.72,-2.52 -3.48,0 -5.72,2.52 -2.2,2.52 -2.2,6.2 0,3.68 2.2,6.2 2.24,2.52 5.72,2.52 z" /><path
         inkscape:connector-curvature="0"
         id="path4236"
         style="font-style:normal;font-variant:normal;font-weight:normal;font-stretch:normal;font-family:Laksaman;-inkscape-font-specification:Laksaman;fill:#ffffff"
         d="m 231.47135,23.38 q -0.24,-0.08 -0.72,-0.08 -2.64,0 -4.48,2.16 -1.8,2.12 -1.8,5.72 l 0,11 -2.4,0 0,-13.76 q 0,-4.52 -0.6,-6.68 l 2.04,0 q 0.64,1.28 0.64,4.08 1.92,-4.52 6.16,-4.52 0.56,0 1.16,0.12 l 0,1.96 z" /><path
         inkscape:connector-curvature="0"
         id="path4238"
         style="font-style:normal;font-variant:normal;font-weight:normal;font-stretch:normal;font-family:Laksaman;-inkscape-font-specification:Laksaman;fill:#ffffff"
         d="m 237.47823,42.18 -2.4,0 0,-20.44 2.4,0 0,20.44 z m -1.28,-28.56 q 0.84,0 1.36,0.56 0.56,0.52 0.56,1.36 0,0.84 -0.56,1.36 -0.52,0.48 -1.36,0.48 -0.84,0 -1.36,-0.48 -0.48,-0.52 -0.48,-1.36 0,-0.84 0.48,-1.36 0.52,-0.56 1.36,-0.56 z" /><path
         inkscape:connector-curvature="0"
         id="path4240"
         style="font-style:normal;font-variant:normal;font-weight:normal;font-stretch:normal;font-family:Laksaman;-inkscape-font-specification:Laksaman;fill:#ffffff"
         d="m 248.67198,42.74 q -2.72,0 -4.64,-1.56 -1.88,-1.6 -1.88,-4.12 0,-7.64 13.6,-7.64 0,-2.92 -1.4,-4.52 -1.4,-1.6 -4.12,-1.6 -2.2,0 -6.52,1.36 l -0.28,-2.28 q 3.36,-1.08 6.96,-1.08 7.76,0 7.76,8.56 l 0,7.32 q 0,2.52 0.72,5 l -2.08,0.44 -0.84,-3.32 q -2.76,3.44 -7.28,3.44 z m -4.12,-6.08 q 0,1.88 1.16,3 1.16,1.08 3.04,1.08 2.4,0 4.68,-1.48 2.32,-1.52 2.32,-3.68 l 0,-4.16 q -11.2,0 -11.2,5.24 z" /><path
         inkscape:connector-curvature="0"
         id="path4242"
         style="font-style:normal;font-variant:normal;font-weight:normal;font-stretch:normal;font-family:Laksaman;-inkscape-font-specification:Laksaman;fill:#ffffff"
         d="m 275.94385,31.7 q 0,-4.48 2.48,-7.44 2.52,-2.96 6.72,-2.96 5.08,0 7.72,4.32 l 0,-13.84 2.4,0 0,25.4 q 0,3.6 0.16,5 l -2.2,0 q -0.12,-1.56 -0.12,-3.6 -2.84,4.16 -7.6,4.16 -4.48,0 -7.04,-3.08 -2.52,-3.12 -2.52,-7.96 z m 9.88,9.04 q 2.96,0 5,-1.92 2.04,-1.96 2.04,-4.84 l 0,-3.4 q 0,-3.08 -2.12,-5.16 -2.08,-2.12 -5.16,-2.12 -3.48,0 -5.36,2.36 -1.88,2.36 -1.88,6.12 0,8.96 7.48,8.96 z" /><path
         inkscape:connector-curvature="0"
         id="path4244"
         style="font-style:normal;font-variant:normal;font-weight:normal;font-stretch:normal;font-family:Laksaman;-inkscape-font-specification:Laksaman;fill:#ffffff"
         d="m 306.48448,42.74 q -2.72,0 -4.64,-1.56 -1.88,-1.6 -1.88,-4.12 0,-7.64 13.6,-7.64 0,-2.92 -1.4,-4.52 -1.4,-1.6 -4.12,-1.6 -2.2,0 -6.52,1.36 l -0.28,-2.28 q 3.36,-1.08 6.96,-1.08 7.76,0 7.76,8.56 l 0,7.32 q 0,2.52 0.72,5 l -2.08,0.44 -0.84,-3.32 q -2.76,3.44 -7.28,3.44 z m -4.12,-6.08 q 0,1.88 1.16,3 1.16,1.08 3.04,1.08 2.4,0 4.68,-1.48 2.32,-1.52 2.32,-3.68 l 0,-4.16 q -11.2,0 -11.2,5.24 z" /><path
         inkscape:connector-curvature="0"
         id="path4246"
         style="font-style:normal;font-variant:normal;font-weight:normal;font-stretch:normal;font-family:Laksaman;-inkscape-font-specification:Laksaman;fill:#ffffff"
         d="m 173.60948,89.14 0.72,2.08 q -3.24,1.52 -7.8,1.52 -5.92,0 -9.76,-4.32 -3.84,-4.36 -3.84,-10.64 0,-6.24 3.8,-10.48 3.84,-4.24 9.8,-4.24 4.56,0 7.8,1.52 l -0.72,2.08 q -3.76,-1.6 -6.96,-1.6 -4.92,0 -8.12,3.76 -3.2,3.76 -3.2,9.04 0,5.28 3.2,9.08 3.2,3.8 8.12,3.8 3.2,0 6.96,-1.6 z" /><path
         inkscape:connector-curvature="0"
         id="path4248"
         style="font-style:normal;font-variant:normal;font-weight:normal;font-stretch:normal;font-family:Laksaman;-inkscape-font-specification:Laksaman;fill:#ffffff"
         d="m 198.18448,82.02 q 0,4.56 -2.92,7.64 -2.88,3.08 -7.4,3.08 -4.56,0 -7.44,-3.04 -2.88,-3.08 -2.88,-7.68 0,-4.56 2.92,-7.64 2.92,-3.08 7.4,-3.08 4.52,0 7.4,3.08 2.92,3.08 2.92,7.64 z m -10.32,8.72 q 3.48,0 5.68,-2.52 2.24,-2.52 2.24,-6.2 0,-3.68 -2.2,-6.2 -2.2,-2.52 -5.72,-2.52 -3.48,0 -5.72,2.52 -2.2,2.52 -2.2,6.2 0,3.68 2.2,6.2 2.24,2.52 5.72,2.52 z" /><path
         inkscape:connector-curvature="0"
         id="path4250"
         style="font-style:normal;font-variant:normal;font-weight:normal;font-stretch:normal;font-family:Laksaman;-inkscape-font-specification:Laksaman;fill:#ffffff"
         d="m 225.61073,71.3 q 3.56,0 5.4,2.68 1.84,2.68 1.84,6.84 l 0,11.36 -2.4,0 0,-11.32 q 0,-3.36 -1.36,-5.44 -1.32,-2.12 -4.12,-2.12 -2.28,0 -4.08,1.8 -1.8,1.8 -1.8,4.08 l 0,13 -2.4,0 0,-12.4 q 0,-6.48 -5.16,-6.48 -2.36,0 -4.28,2.04 -1.92,2.04 -1.92,4.44 l 0,12.4 -2.4,0 0,-15.4 q 0,-1.8 -0.4,-5.04 l 2.2,0 q 0.4,1.24 0.48,3.64 2.36,-4.08 6.88,-4.08 4.16,0 6.2,4.56 2.4,-4.56 7.32,-4.56 z" /><path
         inkscape:connector-curvature="0"
         id="path4252"
         style="font-style:normal;font-variant:normal;font-weight:normal;font-stretch:normal;font-family:Laksaman;-inkscape-font-specification:Laksaman;fill:#ffffff"
         d="m 248.8626,71.3 q 4.44,0 7,3.12 2.56,3.08 2.56,7.88 0,4.52 -2.52,7.48 -2.48,2.96 -6.68,2.96 -5.08,0 -7.72,-4.36 l 0,13.84 -2.4,0 0,-25.4 q 0,-3.76 -0.16,-5.08 l 2.2,0 q 0.12,1.56 0.12,3.72 2.84,-4.16 7.6,-4.16 z m -0.32,2 q -2.96,0 -5,1.92 -2.04,1.92 -2.04,4.8 l 0,3.44 q 0,3.04 2.12,5.16 2.12,2.12 5.16,2.12 3.48,0 5.36,-2.32 1.88,-2.32 1.88,-6.16 0,-4.16 -1.88,-6.56 -1.84,-2.4 -5.6,-2.4 z" /><path
         inkscape:connector-curvature="0"
         id="path4254"
         style="font-style:normal;font-variant:normal;font-weight:normal;font-stretch:normal;font-family:Laksaman;-inkscape-font-specification:Laksaman;fill:#ffffff"
         d="m 271.08323,90.74 -0.24,2 q -7.6,-0.36 -7.6,-10.84 l 0,-20.12 2.4,0 0,19.28 q 0,2.28 0.2,3.84 0.2,1.56 0.72,3 0.56,1.44 1.68,2.16 1.12,0.68 2.84,0.68 z" /><path
         inkscape:connector-curvature="0"
         id="path4256"
         style="font-style:normal;font-variant:normal;font-weight:normal;font-stretch:normal;font-family:Laksaman;-inkscape-font-specification:Laksaman;fill:#ffffff"
         d="m 276.19448,82.14 q 0.12,3.88 2.32,6.24 2.24,2.36 5.96,2.36 3.48,0 7.16,-1.44 l 0.2,1.96 q -3.56,1.48 -7.6,1.48 -4.6,0 -7.52,-2.84 -2.92,-2.88 -2.92,-7.4 0,-4.84 2.8,-8 2.84,-3.2 7.4,-3.2 8.6,0 8.8,10.84 l -16.6,0 z m 14.2,-2 q -0.08,-3.12 -1.92,-4.96 -1.8,-1.88 -4.76,-1.88 -2.96,0 -4.96,1.96 -2,1.92 -2.44,4.88 l 14.08,0 z" /><path
         inkscape:connector-curvature="0"
         id="path4258"
         style="font-style:normal;font-variant:normal;font-weight:normal;font-stretch:normal;font-family:Laksaman;-inkscape-font-specification:Laksaman;fill:#ffffff"
         d="m 313.77448,92.18 -2.76,0 -6.84,-8.84 -6.8,8.84 -2.72,0 8.32,-10.4 -7.76,-10.04 2.64,0 6.48,8.28 6.44,-8.28 2.6,0 -7.84,9.96 8.24,10.48 z" /><path
         inkscape:connector-curvature="0"
         id="path4260"
         style="font-style:normal;font-variant:normal;font-weight:normal;font-stretch:normal;font-family:Laksaman;-inkscape-font-specification:Laksaman;fill:#ffffff"
         d="m 319.2751,92.18 -2.4,0 0,-20.44 2.4,0 0,20.44 z m -1.28,-28.56 q 0.84,0 1.36,0.56 0.56,0.52 0.56,1.36 0,0.84 -0.56,1.36 -0.52,0.48 -1.36,0.48 -0.84,0 -1.36,-0.48 -0.48,-0.52 -0.48,-1.36 0,-0.84 0.48,-1.36 0.52,-0.56 1.36,-0.56 z" /><path
         inkscape:connector-curvature="0"
         id="path4262"
         style="font-style:normal;font-variant:normal;font-weight:normal;font-stretch:normal;font-family:Laksaman;-inkscape-font-specification:Laksaman;fill:#ffffff"
         d="m 324.06885,81.7 q 0,-4.48 2.48,-7.44 2.52,-2.96 6.72,-2.96 5.08,0 7.72,4.32 l 0,-13.84 2.4,0 0,25.4 q 0,3.6 0.16,5 l -2.2,0 q -0.12,-1.56 -0.12,-3.6 -2.84,4.16 -7.6,4.16 -4.48,0 -7.04,-3.08 -2.52,-3.12 -2.52,-7.96 z m 9.88,9.04 q 2.96,0 5,-1.92 2.04,-1.96 2.04,-4.84 l 0,-3.4 q 0,-3.08 -2.12,-5.16 -2.08,-2.12 -5.16,-2.12 -3.48,0 -5.36,2.36 -1.88,2.36 -1.88,6.12 0,8.96 7.48,8.96 z" /><path
         inkscape:connector-curvature="0"
         id="path4264"
         style="font-style:normal;font-variant:normal;font-weight:normal;font-stretch:normal;font-family:Laksaman;-inkscape-font-specification:Laksaman;fill:#ffffff"
         d="m 354.60948,92.74 q -2.72,0 -4.64,-1.56 -1.88,-1.6 -1.88,-4.12 0,-7.64 13.6,-7.64 0,-2.92 -1.4,-4.52 -1.4,-1.6 -4.12,-1.6 -2.2,0 -6.52,1.36 l -0.28,-2.28 q 3.36,-1.08 6.96,-1.08 7.76,0 7.76,8.56 l 0,7.32 q 0,2.52 0.72,5 l -2.08,0.44 -0.84,-3.32 q -2.76,3.44 -7.28,3.44 z m -4.12,-6.08 q 0,1.88 1.16,3 1.16,1.08 3.04,1.08 2.4,0 4.68,-1.48 2.32,-1.52 2.32,-3.68 l 0,-4.16 q -11.2,0 -11.2,5.24 z" /><path
         inkscape:connector-curvature="0"
         id="path4266"
         style="font-style:normal;font-variant:normal;font-weight:normal;font-stretch:normal;font-family:Laksaman;-inkscape-font-specification:Laksaman;fill:#ffffff"
         d="m 368.9126,81.7 q 0,-4.48 2.48,-7.44 2.52,-2.96 6.72,-2.96 5.08,0 7.72,4.32 l 0,-13.84 2.4,0 0,25.4 q 0,3.6 0.16,5 l -2.2,0 q -0.12,-1.56 -0.12,-3.6 -2.84,4.16 -7.6,4.16 -4.48,0 -7.04,-3.08 -2.52,-3.12 -2.52,-7.96 z m 9.88,9.04 q 2.96,0 5,-1.92 2.04,-1.96 2.04,-4.84 l 0,-3.4 q 0,-3.08 -2.12,-5.16 -2.08,-2.12 -5.16,-2.12 -3.48,0 -5.36,2.36 -1.88,2.36 -1.88,6.12 0,8.96 7.48,8.96 z" /><path
         inkscape:connector-curvature="0"
         id="path4268"
         style="font-style:normal;font-variant:normal;font-weight:normal;font-stretch:normal;font-family:Laksaman;-inkscape-font-specification:Laksaman;fill:#ffffff"
         d="m 395.41323,82.14 q 0.12,3.88 2.32,6.24 2.24,2.36 5.96,2.36 3.48,0 7.16,-1.44 l 0.2,1.96 q -3.56,1.48 -7.6,1.48 -4.6,0 -7.52,-2.84 -2.92,-2.88 -2.92,-7.4 0,-4.84 2.8,-8 2.84,-3.2 7.4,-3.2 8.6,0 8.8,10.84 l -16.6,0 z m 14.2,-2 q -0.08,-3.12 -1.92,-4.96 -1.8,-1.88 -4.76,-1.88 -2.96,0 -4.96,1.96 -2,1.92 -2.44,4.88 l 14.08,0 z" /></g></g></svg>