<?xml version="1.0" encoding="UTF-8" standalone="no"?>
<!-- Generator: Adobe Illustrator 21.0.0, SVG Export Plug-In . SVG Version: 6.00 Build 0)  -->

<svg
   xmlns:dc="http://purl.org/dc/elements/1.1/"
   xmlns:cc="http://creativecommons.org/ns#"
   xmlns:rdf="http://www.w3.org/1999/02/22-rdf-syntax-ns#"
   xmlns:svg="http://www.w3.org/2000/svg"
   xmlns="http://www.w3.org/2000/svg"
   xmlns:sodipodi="http://sodipodi.sourceforge.net/DTD/sodipodi-0.dtd"
   xmlns:inkscape="http://www.inkscape.org/namespaces/inkscape"
   version="1.1"
   id="Camada_1"
   x="0px"
   y="0px"
   viewBox="0 0 136.00001 110"
   xml:space="preserve"
   inkscape:version="0.91 r13725"
   sodipodi:docname="logo-black.svg"
   width="136"
   height="110"><metadata
     id="metadata97"><rdf:RDF><cc:Work
         rdf:about=""><dc:format>image/svg+xml</dc:format><dc:type
           rdf:resource="http://purl.org/dc/dcmitype/StillImage" /><dc:title></dc:title></cc:Work></rdf:RDF></metadata><defs
     id="defs95" /><sodipodi:namedview
     pagecolor="#ffffff"
     bordercolor="#666666"
     borderopacity="1"
     objecttolerance="10"
     gridtolerance="10"
     guidetolerance="10"
     inkscape:pageopacity="0"
     inkscape:pageshadow="2"
     inkscape:window-width="1366"
     inkscape:window-height="712"
     id="namedview93"
     showgrid="false"
     inkscape:zoom="2.8566198"
     inkscape:cx="27.330882"
     inkscape:cy="72.056148"
     inkscape:window-x="0"
     inkscape:window-y="30"
     inkscape:window-maximized="1"
     inkscape:current-layer="g5"
     showguides="false" /><style
     type="text/css"
     id="style3">
	.st0{fill:#000001;}
	.st1{fill:none;stroke:#1C1C1B;stroke-width:2.973;stroke-miterlimit:10;}
	.st2{fill:none;stroke:#1C1C1B;stroke-width:1.836;stroke-miterlimit:10;}
	.st3{fill:none;stroke:#1C1C1B;stroke-width:1.134;stroke-miterlimit:10;}
	.st4{fill:none;stroke:#1C1C1B;stroke-width:0.7;stroke-miterlimit:10;}
	.st5{fill:#1C1C1B;}
</style><g
     id="g5"
     transform="translate(0,-4.0000004)"><g
       id="g4225"
       transform="translate(-1.533,2.4339993)"><path
         style="fill:#000001"
         inkscape:connector-curvature="0"
         id="path7"
         d="m 70.3,95.6 c -13,0 -23.7,-10.6 -23.7,-23.7 0,-13 10.6,-23.7 23.7,-23.7 13,0 23.7,10.6 23.7,23.7 0,13 -10.6,23.7 -23.7,23.7 m 0,-46.1 c -12.4,0 -22.4,10.1 -22.4,22.4 0,12.4 10.1,22.4 22.4,22.4 12.4,0 22.4,-10.1 22.4,-22.4 0,-12.4 -10,-22.4 -22.4,-22.4"
         class="st0" /><path
         style="fill:none;stroke:#1c1c1b;stroke-width:2.97300005;stroke-miterlimit:10"
         inkscape:connector-curvature="0"
         id="path9"
         d="m 70.3,95.6 c -13,0 -23.7,-10.6 -23.7,-23.7 0,-13 10.6,-23.7 23.7,-23.7 13,0 23.7,10.6 23.7,23.7 0,13 -10.6,23.7 -23.7,23.7 z m 0,-46.1 c -12.4,0 -22.4,10.1 -22.4,22.4 0,12.4 10.1,22.4 22.4,22.4 12.4,0 22.4,-10.1 22.4,-22.4 0,-12.4 -10,-22.4 -22.4,-22.4 z"
         class="st1" /><path
         style="fill:#000001"
         inkscape:connector-curvature="0"
         id="path11"
         d="M 70.3,110.8 C 49.4,110.8 32.4,93.8 32.4,72.9 32.4,52 49.4,35 70.3,35 c 20.9,0 37.9,17 37.9,37.9 0.1,20.9 -16.9,37.9 -37.9,37.9 m 0,-74.6 c -20.2,0 -36.7,16.5 -36.7,36.7 0,20.2 16.5,36.7 36.7,36.7 C 90.5,109.6 107,93.1 107,72.9 107,52.7 90.6,36.2 70.3,36.2"
         class="st0" /><path
         style="fill:none;stroke:#1c1c1b;stroke-width:2.97300005;stroke-miterlimit:10"
         inkscape:connector-curvature="0"
         id="path13"
         d="M 70.3,110.8 C 49.4,110.8 32.4,93.8 32.4,72.9 32.4,52 49.4,35 70.3,35 c 20.9,0 37.9,17 37.9,37.9 0.1,20.9 -16.9,37.9 -37.9,37.9 z m 0,-74.6 c -20.2,0 -36.7,16.5 -36.7,36.7 0,20.2 16.5,36.7 36.7,36.7 C 90.5,109.6 107,93.1 107,72.9 107,52.7 90.6,36.2 70.3,36.2 Z"
         class="st1" /><path
         style="fill:#000001"
         inkscape:connector-curvature="0"
         id="path15"
         d="m 70.2,82.5 c -13,0 -23.7,-10.6 -23.7,-23.7 0,-13 10.6,-23.7 23.7,-23.7 13,0 23.7,10.6 23.7,23.7 0,13.1 -10.6,23.7 -23.7,23.7 m 0,-46 c -12.4,0 -22.4,10.1 -22.4,22.4 0,12.4 10.1,22.4 22.4,22.4 12.4,0 22.4,-10.1 22.4,-22.4 0,-12.4 -10,-22.4 -22.4,-22.4"
         class="st0" /><path
         style="fill:none;stroke:#1c1c1b;stroke-width:2.97300005;stroke-miterlimit:10"
         inkscape:connector-curvature="0"
         id="path17"
         d="m 70.2,82.5 c -13,0 -23.7,-10.6 -23.7,-23.7 0,-13 10.6,-23.7 23.7,-23.7 13,0 23.7,10.6 23.7,23.7 0,13.1 -10.6,23.7 -23.7,23.7 z m 0,-46 c -12.4,0 -22.4,10.1 -22.4,22.4 0,12.4 10.1,22.4 22.4,22.4 12.4,0 22.4,-10.1 22.4,-22.4 0,-12.4 -10,-22.4 -22.4,-22.4 z"
         class="st1" /><path
         style="fill:#000001"
         inkscape:connector-curvature="0"
         id="path19"
         d="m 82.8,102.7 c -13,0 -23.7,-10.6 -23.7,-23.7 0,-13 10.6,-23.7 23.7,-23.7 13,0 23.7,10.6 23.7,23.7 -0.1,13.1 -10.7,23.7 -23.7,23.7 m 0,-46.1 c -12.4,0 -22.4,10.1 -22.4,22.4 0,12.4 10.1,22.4 22.4,22.4 12.4,0 22.4,-10.1 22.4,-22.4 0,-12.3 -10.1,-22.4 -22.4,-22.4"
         class="st0" /><path
         style="fill:none;stroke:#1c1c1b;stroke-width:2.97300005;stroke-miterlimit:10"
         inkscape:connector-curvature="0"
         id="path21"
         d="m 82.8,102.7 c -13,0 -23.7,-10.6 -23.7,-23.7 0,-13 10.6,-23.7 23.7,-23.7 13,0 23.7,10.6 23.7,23.7 -0.1,13.1 -10.7,23.7 -23.7,23.7 z m 0,-46.1 c -12.4,0 -22.4,10.1 -22.4,22.4 0,12.4 10.1,22.4 22.4,22.4 12.4,0 22.4,-10.1 22.4,-22.4 0,-12.3 -10.1,-22.4 -22.4,-22.4 z"
         class="st1" /><path
         style="fill:#000001"
         inkscape:connector-curvature="0"
         id="path23"
         d="M 57.6,102.7 C 44.6,102.7 34,92.1 34,79 34,66 44.6,55.3 57.7,55.3 70.8,55.3 81.3,66 81.3,79 c 0,13.1 -10.6,23.7 -23.7,23.7 m 0,-46.1 c -12.4,0 -22.4,10.1 -22.4,22.4 0,12.4 10.1,22.4 22.4,22.4 C 69.9,101.4 80,91.4 80,79 80,66.7 70,56.6 57.6,56.6"
         class="st0" /><path
         style="fill:none;stroke:#1c1c1b;stroke-width:2.97300005;stroke-miterlimit:10"
         inkscape:connector-curvature="0"
         id="path25"
         d="M 57.6,102.7 C 44.6,102.7 34,92.1 34,79 34,66 44.6,55.3 57.7,55.3 70.8,55.3 81.3,66 81.3,79 c 0,13.1 -10.6,23.7 -23.7,23.7 z m 0,-46.1 c -12.4,0 -22.4,10.1 -22.4,22.4 0,12.4 10.1,22.4 22.4,22.4 C 69.9,101.4 80,91.4 80,79 80,66.7 70,56.6 57.6,56.6 Z"
         class="st1" /><path
         style="fill:#000001"
         inkscape:connector-curvature="0"
         id="path27"
         d="m 112.3,39.1 c -8.1,0 -14.6,-6.6 -14.6,-14.6 0,-8.1 6.6,-14.6 14.6,-14.6 8.1,0 14.6,6.6 14.6,14.6 0,8 -6.5,14.6 -14.6,14.6 m 0,-28.5 c -7.6,0 -13.8,6.2 -13.8,13.8 0,7.6 6.2,13.8 13.8,13.8 7.6,0 13.8,-6.2 13.8,-13.8 0.1,-7.6 -6.1,-13.8 -13.8,-13.8"
         class="st0" /><path
         style="fill:none;stroke:#1c1c1b;stroke-width:1.83599997;stroke-miterlimit:10"
         inkscape:connector-curvature="0"
         id="path29"
         d="m 112.3,39.1 c -8.1,0 -14.6,-6.6 -14.6,-14.6 0,-8.1 6.6,-14.6 14.6,-14.6 8.1,0 14.6,6.6 14.6,14.6 0,8 -6.5,14.6 -14.6,14.6 z m 0,-28.5 c -7.6,0 -13.8,6.2 -13.8,13.8 0,7.6 6.2,13.8 13.8,13.8 7.6,0 13.8,-6.2 13.8,-13.8 0.1,-7.6 -6.1,-13.8 -13.8,-13.8 z"
         class="st2" /><path
         style="fill:#000001"
         inkscape:connector-curvature="0"
         id="path31"
         d="M 112.3,48.5 C 99.4,48.5 88.9,38 88.9,25.1 88.9,12.2 99.4,1.7 112.3,1.7 c 12.9,0 23.4,10.5 23.4,23.4 0.1,12.9 -10.5,23.4 -23.4,23.4 m 0,-46.1 c -12.5,0 -22.7,10.2 -22.7,22.7 0,12.5 10.2,22.7 22.7,22.7 C 124.8,47.8 135,37.6 135,25.1 135,12.6 124.8,2.4 112.3,2.4"
         class="st0" /><path
         style="fill:none;stroke:#1c1c1b;stroke-width:1.83599997;stroke-miterlimit:10"
         inkscape:connector-curvature="0"
         id="path33"
         d="M 112.3,48.5 C 99.4,48.5 88.9,38 88.9,25.1 88.9,12.2 99.4,1.7 112.3,1.7 c 12.9,0 23.4,10.5 23.4,23.4 0.1,12.9 -10.5,23.4 -23.4,23.4 z m 0,-46.1 c -12.5,0 -22.7,10.2 -22.7,22.7 0,12.5 10.2,22.7 22.7,22.7 C 124.8,47.8 135,37.6 135,25.1 135,12.6 124.8,2.4 112.3,2.4 Z"
         class="st2" /><path
         style="fill:#000001"
         inkscape:connector-curvature="0"
         id="path35"
         d="m 112.3,31 c -8.1,0 -14.6,-6.6 -14.6,-14.6 0,-8.1 6.6,-14.6 14.6,-14.6 8.1,0 14.6,6.6 14.6,14.6 0,8.1 -6.6,14.6 -14.6,14.6 m 0,-28.4 c -7.6,0 -13.8,6.2 -13.8,13.8 0,7.6 6.2,13.8 13.8,13.8 7.6,0 13.8,-6.2 13.8,-13.8 0,-7.6 -6.2,-13.8 -13.8,-13.8"
         class="st0" /><path
         style="fill:none;stroke:#1c1c1b;stroke-width:1.83599997;stroke-miterlimit:10"
         inkscape:connector-curvature="0"
         id="path37"
         d="m 112.3,31 c -8.1,0 -14.6,-6.6 -14.6,-14.6 0,-8.1 6.6,-14.6 14.6,-14.6 8.1,0 14.6,6.6 14.6,14.6 0,8.1 -6.6,14.6 -14.6,14.6 z m 0,-28.4 c -7.6,0 -13.8,6.2 -13.8,13.8 0,7.6 6.2,13.8 13.8,13.8 7.6,0 13.8,-6.2 13.8,-13.8 0,-7.6 -6.2,-13.8 -13.8,-13.8 z"
         class="st2" /><path
         style="fill:#000001"
         inkscape:connector-curvature="0"
         id="path39"
         d="m 120,43.5 c -8.1,0 -14.6,-6.6 -14.6,-14.6 0,-8.1 6.6,-14.6 14.6,-14.6 8.1,0 14.6,6.6 14.6,14.6 0,8 -6.5,14.6 -14.6,14.6 M 120,15 c -7.6,0 -13.8,6.2 -13.8,13.8 0,7.6 6.2,13.8 13.8,13.8 7.6,0 13.8,-6.2 13.8,-13.8 C 133.8,21.2 127.6,15 120,15"
         class="st0" /><path
         style="fill:none;stroke:#1c1c1b;stroke-width:1.83599997;stroke-miterlimit:10"
         inkscape:connector-curvature="0"
         id="path41"
         d="m 120,43.5 c -8.1,0 -14.6,-6.6 -14.6,-14.6 0,-8.1 6.6,-14.6 14.6,-14.6 8.1,0 14.6,6.6 14.6,14.6 0,8 -6.5,14.6 -14.6,14.6 z M 120,15 c -7.6,0 -13.8,6.2 -13.8,13.8 0,7.6 6.2,13.8 13.8,13.8 7.6,0 13.8,-6.2 13.8,-13.8 C 133.8,21.2 127.6,15 120,15 Z"
         class="st2" /><path
         style="fill:#000001"
         inkscape:connector-curvature="0"
         id="path43"
         d="m 104.5,43.5 c -8.1,0 -14.6,-6.6 -14.6,-14.6 0,-8.1 6.6,-14.6 14.6,-14.6 8,0 14.6,6.6 14.6,14.6 0,8 -6.6,14.6 -14.6,14.6 m 0,-28.5 c -7.6,0 -13.8,6.2 -13.8,13.8 0,7.6 6.2,13.8 13.8,13.8 7.6,0 13.8,-6.2 13.8,-13.8 0,-7.6 -6.2,-13.8 -13.8,-13.8"
         class="st0" /><path
         style="fill:none;stroke:#1c1c1b;stroke-width:1.83599997;stroke-miterlimit:10"
         inkscape:connector-curvature="0"
         id="path45"
         d="m 104.5,43.5 c -8.1,0 -14.6,-6.6 -14.6,-14.6 0,-8.1 6.6,-14.6 14.6,-14.6 8,0 14.6,6.6 14.6,14.6 0,8 -6.6,14.6 -14.6,14.6 z m 0,-28.5 c -7.6,0 -13.8,6.2 -13.8,13.8 0,7.6 6.2,13.8 13.8,13.8 7.6,0 13.8,-6.2 13.8,-13.8 0,-7.6 -6.2,-13.8 -13.8,-13.8 z"
         class="st2" /><path
         style="fill:#000001"
         inkscape:connector-curvature="0"
         id="path47"
         d="m 16.6,85.8 c -5,0 -9,-4 -9,-9 0,-5 4,-9 9,-9 5,0 9,4 9,9 0,4.9 -4,9 -9,9 m 0,-17.6 c -4.7,0 -8.5,3.8 -8.5,8.5 0,4.7 3.8,8.5 8.5,8.5 4.7,0 8.5,-3.8 8.5,-8.5 0.1,-4.7 -3.8,-8.5 -8.5,-8.5"
         class="st0" /><path
         style="fill:none;stroke:#1c1c1b;stroke-width:1.13399994;stroke-miterlimit:10"
         inkscape:connector-curvature="0"
         id="path49"
         d="m 16.6,85.8 c -5,0 -9,-4 -9,-9 0,-5 4,-9 9,-9 5,0 9,4 9,9 0,4.9 -4,9 -9,9 z m 0,-17.6 c -4.7,0 -8.5,3.8 -8.5,8.5 0,4.7 3.8,8.5 8.5,8.5 4.7,0 8.5,-3.8 8.5,-8.5 0.1,-4.7 -3.8,-8.5 -8.5,-8.5 z"
         class="st3" /><path
         style="fill:#000001"
         inkscape:connector-curvature="0"
         id="path51"
         d="m 16.6,91.6 c -8,0 -14.5,-6.5 -14.5,-14.5 0,-8 6.5,-14.5 14.5,-14.5 8,0 14.5,6.5 14.5,14.5 0,8 -6.5,14.5 -14.5,14.5 m 0,-28.5 c -7.7,0 -14,6.3 -14,14 0,7.7 6.3,14 14,14 7.7,0 14,-6.3 14,-14 0,-7.7 -6.3,-14 -14,-14"
         class="st0" /><path
         style="fill:none;stroke:#1c1c1b;stroke-width:1.13399994;stroke-miterlimit:10"
         inkscape:connector-curvature="0"
         id="path53"
         d="m 16.6,91.6 c -8,0 -14.5,-6.5 -14.5,-14.5 0,-8 6.5,-14.5 14.5,-14.5 8,0 14.5,6.5 14.5,14.5 0,8 -6.5,14.5 -14.5,14.5 z m 0,-28.5 c -7.7,0 -14,6.3 -14,14 0,7.7 6.3,14 14,14 7.7,0 14,-6.3 14,-14 0,-7.7 -6.3,-14 -14,-14 z"
         class="st3" /><path
         style="fill:#000001"
         inkscape:connector-curvature="0"
         id="path55"
         d="m 16.6,80.8 c -5,0 -9,-4 -9,-9 0,-5 4,-9 9,-9 5,0 9,4 9,9 0,5 -4.1,9 -9,9 m 0,-17.6 c -4.7,0 -8.5,3.8 -8.5,8.5 0,4.7 3.8,8.5 8.5,8.5 4.7,0 8.5,-3.8 8.5,-8.5 0,-4.6 -3.8,-8.5 -8.5,-8.5"
         class="st0" /><path
         style="fill:none;stroke:#1c1c1b;stroke-width:1.13399994;stroke-miterlimit:10"
         inkscape:connector-curvature="0"
         id="path57"
         d="m 16.6,80.8 c -5,0 -9,-4 -9,-9 0,-5 4,-9 9,-9 5,0 9,4 9,9 0,5 -4.1,9 -9,9 z m 0,-17.6 c -4.7,0 -8.5,3.8 -8.5,8.5 0,4.7 3.8,8.5 8.5,8.5 4.7,0 8.5,-3.8 8.5,-8.5 0,-4.6 -3.8,-8.5 -8.5,-8.5 z"
         class="st3" /><path
         style="fill:#000001"
         inkscape:connector-curvature="0"
         id="path59"
         d="m 21.3,88.5 c -5,0 -9,-4 -9,-9 0,-5 4,-9 9,-9 5,0 9,4 9,9 0.1,4.9 -4,9 -9,9 m 0,-17.6 c -4.7,0 -8.5,3.8 -8.5,8.5 0,4.7 3.8,8.5 8.5,8.5 4.7,0 8.5,-3.8 8.5,-8.5 0.1,-4.6 -3.7,-8.5 -8.5,-8.5"
         class="st0" /><path
         style="fill:none;stroke:#1c1c1b;stroke-width:1.13399994;stroke-miterlimit:10"
         inkscape:connector-curvature="0"
         id="path61"
         d="m 21.3,88.5 c -5,0 -9,-4 -9,-9 0,-5 4,-9 9,-9 5,0 9,4 9,9 0.1,4.9 -4,9 -9,9 z m 0,-17.6 c -4.7,0 -8.5,3.8 -8.5,8.5 0,4.7 3.8,8.5 8.5,8.5 4.7,0 8.5,-3.8 8.5,-8.5 0.1,-4.6 -3.7,-8.5 -8.5,-8.5 z"
         class="st3" /><path
         style="fill:#000001"
         inkscape:connector-curvature="0"
         id="path63"
         d="m 11.8,88.5 c -5,0 -9,-4 -9,-9 0,-5 4,-9 9,-9 5,0 9,4 9,9 0,4.9 -4.1,9 -9,9 m 0,-17.6 c -4.7,0 -8.5,3.8 -8.5,8.5 0,4.7 3.8,8.5 8.5,8.5 4.7,0 8.5,-3.8 8.5,-8.5 0,-4.6 -3.8,-8.5 -8.5,-8.5"
         class="st0" /><path
         style="fill:none;stroke:#1c1c1b;stroke-width:1.13399994;stroke-miterlimit:10"
         inkscape:connector-curvature="0"
         id="path65"
         d="m 11.8,88.5 c -5,0 -9,-4 -9,-9 0,-5 4,-9 9,-9 5,0 9,4 9,9 0,4.9 -4.1,9 -9,9 z m 0,-17.6 c -4.7,0 -8.5,3.8 -8.5,8.5 0,4.7 3.8,8.5 8.5,8.5 4.7,0 8.5,-3.8 8.5,-8.5 0,-4.6 -3.8,-8.5 -8.5,-8.5 z"
         class="st3" /><path
         style="fill:#000001"
         inkscape:connector-curvature="0"
         id="path67"
         d="m 108.3,108.4 c -3.1,0 -5.6,-2.5 -5.6,-5.6 0,-3.1 2.5,-5.6 5.6,-5.6 3.1,0 5.6,2.5 5.6,5.6 -0.1,3.1 -2.6,5.6 -5.6,5.6 m 0,-10.8 c -2.9,0 -5.3,2.4 -5.3,5.3 0,2.9 2.4,5.3 5.3,5.3 2.9,0 5.3,-2.4 5.3,-5.3 -0.1,-3 -2.4,-5.3 -5.3,-5.3"
         class="st0" /><path
         style="fill:none;stroke:#1c1c1b;stroke-width:0.69999999;stroke-miterlimit:10"
         inkscape:connector-curvature="0"
         id="path69"
         d="m 108.3,108.4 c -3.1,0 -5.6,-2.5 -5.6,-5.6 0,-3.1 2.5,-5.6 5.6,-5.6 3.1,0 5.6,2.5 5.6,5.6 -0.1,3.1 -2.6,5.6 -5.6,5.6 z m 0,-10.8 c -2.9,0 -5.3,2.4 -5.3,5.3 0,2.9 2.4,5.3 5.3,5.3 2.9,0 5.3,-2.4 5.3,-5.3 -0.1,-3 -2.4,-5.3 -5.3,-5.3 z"
         class="st4" /><path
         style="fill:#000001"
         inkscape:connector-curvature="0"
         id="path71"
         d="m 108.3,112 c -4.9,0 -8.9,-4 -8.9,-8.9 0,-4.9 4,-8.9 8.9,-8.9 4.9,0 8.9,4 8.9,8.9 0,4.9 -4,8.9 -8.9,8.9 m 0,-17.6 c -4.8,0 -8.6,3.9 -8.6,8.6 0,4.8 3.9,8.6 8.6,8.6 4.8,0 8.6,-3.9 8.6,-8.6 0,-4.7 -3.9,-8.6 -8.6,-8.6"
         class="st0" /><path
         style="fill:none;stroke:#1c1c1b;stroke-width:0.69999999;stroke-miterlimit:10"
         inkscape:connector-curvature="0"
         id="path73"
         d="m 108.3,112 c -4.9,0 -8.9,-4 -8.9,-8.9 0,-4.9 4,-8.9 8.9,-8.9 4.9,0 8.9,4 8.9,8.9 0,4.9 -4,8.9 -8.9,8.9 z m 0,-17.6 c -4.8,0 -8.6,3.9 -8.6,8.6 0,4.8 3.9,8.6 8.6,8.6 4.8,0 8.6,-3.9 8.6,-8.6 0,-4.7 -3.9,-8.6 -8.6,-8.6 z"
         class="st4" /><path
         style="fill:#000001"
         inkscape:connector-curvature="0"
         id="path75"
         d="m 108.3,105.3 c -3.1,0 -5.6,-2.5 -5.6,-5.6 0,-3.1 2.5,-5.6 5.6,-5.6 3.1,0 5.6,2.5 5.6,5.6 -0.1,3.1 -2.6,5.6 -5.6,5.6 m 0,-10.8 c -2.9,0 -5.3,2.4 -5.3,5.3 0,2.9 2.4,5.3 5.3,5.3 2.9,0 5.3,-2.4 5.3,-5.3 0,-2.9 -2.4,-5.3 -5.3,-5.3"
         class="st0" /><path
         style="fill:none;stroke:#1c1c1b;stroke-width:0.69999999;stroke-miterlimit:10"
         inkscape:connector-curvature="0"
         id="path77"
         d="m 108.3,105.3 c -3.1,0 -5.6,-2.5 -5.6,-5.6 0,-3.1 2.5,-5.6 5.6,-5.6 3.1,0 5.6,2.5 5.6,5.6 -0.1,3.1 -2.6,5.6 -5.6,5.6 z m 0,-10.8 c -2.9,0 -5.3,2.4 -5.3,5.3 0,2.9 2.4,5.3 5.3,5.3 2.9,0 5.3,-2.4 5.3,-5.3 0,-2.9 -2.4,-5.3 -5.3,-5.3 z"
         class="st4" /><path
         style="fill:#000001"
         inkscape:connector-curvature="0"
         id="path79"
         d="m 111.2,110.1 c -3.1,0 -5.6,-2.5 -5.6,-5.6 0,-3.1 2.5,-5.6 5.6,-5.6 3.1,0 5.6,2.5 5.6,5.6 0,3.1 -2.5,5.6 -5.6,5.6 m 0,-10.9 c -2.9,0 -5.3,2.4 -5.3,5.3 0,2.9 2.4,5.3 5.3,5.3 2.9,0 5.3,-2.4 5.3,-5.3 0,-2.9 -2.4,-5.3 -5.3,-5.3"
         class="st0" /><path
         style="fill:none;stroke:#1c1c1b;stroke-width:0.69999999;stroke-miterlimit:10"
         inkscape:connector-curvature="0"
         id="path81"
         d="m 111.2,110.1 c -3.1,0 -5.6,-2.5 -5.6,-5.6 0,-3.1 2.5,-5.6 5.6,-5.6 3.1,0 5.6,2.5 5.6,5.6 0,3.1 -2.5,5.6 -5.6,5.6 z m 0,-10.9 c -2.9,0 -5.3,2.4 -5.3,5.3 0,2.9 2.4,5.3 5.3,5.3 2.9,0 5.3,-2.4 5.3,-5.3 0,-2.9 -2.4,-5.3 -5.3,-5.3 z"
         class="st4" /><path
         style="fill:#000001"
         inkscape:connector-curvature="0"
         id="path83"
         d="m 105.3,110.1 c -3.1,0 -5.6,-2.5 -5.6,-5.6 0,-3.1 2.5,-5.6 5.6,-5.6 3.1,0 5.6,2.5 5.6,5.6 -0.1,3.1 -2.5,5.6 -5.6,5.6 m 0,-10.9 c -2.9,0 -5.3,2.4 -5.3,5.3 0,2.9 2.4,5.3 5.3,5.3 2.9,0 5.3,-2.4 5.3,-5.3 0,-2.9 -2.4,-5.3 -5.3,-5.3"
         class="st0" /><path
         style="fill:none;stroke:#1c1c1b;stroke-width:0.69999999;stroke-miterlimit:10"
         inkscape:connector-curvature="0"
         id="path85"
         d="m 105.3,110.1 c -3.1,0 -5.6,-2.5 -5.6,-5.6 0,-3.1 2.5,-5.6 5.6,-5.6 3.1,0 5.6,2.5 5.6,5.6 -0.1,3.1 -2.5,5.6 -5.6,5.6 z m 0,-10.9 c -2.9,0 -5.3,2.4 -5.3,5.3 0,2.9 2.4,5.3 5.3,5.3 2.9,0 5.3,-2.4 5.3,-5.3 0,-2.9 -2.4,-5.3 -5.3,-5.3 z"
         class="st4" /></g></g></svg>